<?xml version="1.0" encoding="UTF-8" standalone="no"?>
<svg
   id="Layer_1"
   data-name="Layer 1"
   viewBox="0 0 122.88 113.41"
   version="1.1"
   sodipodi:docname="succesfull.svg"
   inkscape:version="1.2 (dc2aedaf03, 2022-05-15)"
   xmlns:inkscape="http://www.inkscape.org/namespaces/inkscape"
   xmlns:sodipodi="http://sodipodi.sourceforge.net/DTD/sodipodi-0.dtd"
   xmlns:xlink="http://www.w3.org/1999/xlink"
   xmlns="http://www.w3.org/2000/svg"
   xmlns:svg="http://www.w3.org/2000/svg">
  <sodipodi:namedview
     id="namedview11"
     pagecolor="#ffffff"
     bordercolor="#000000"
     borderopacity="0.25"
     inkscape:showpageshadow="2"
     inkscape:pageopacity="0.0"
     inkscape:pagecheckerboard="0"
     inkscape:deskcolor="#d1d1d1"
     showgrid="false"
     inkscape:zoom="5.075257"
     inkscape:cx="49.55414"
     inkscape:cy="58.814755"
     inkscape:window-width="1920"
     inkscape:window-height="1001"
     inkscape:window-x="-9"
     inkscape:window-y="-9"
     inkscape:window-maximized="1"
     inkscape:current-layer="Layer_1" />
  <defs
     id="defs4">
    <linearGradient
       inkscape:collect="always"
       id="linearGradient1939">
      <stop
         style="stop-color:#00673b;stop-opacity:1;"
         offset="0"
         id="stop1935" />
      <stop
         style="stop-color:#0b0b0b;stop-opacity:1;"
         offset="1"
         id="stop1937" />
    </linearGradient>
    <style
       id="style2">.cls-1{fill:#065fd4;}</style>
    <linearGradient
       inkscape:collect="always"
       xlink:href="#linearGradient1939"
       id="linearGradient1941"
       x1="0.78813744"
       y1="59.463913"
       x2="162.27188"
       y2="61.63129"
       gradientUnits="userSpaceOnUse" />
  </defs>
  <title
     id="title6">blue-like-button</title>
  <path
     class="cls-1"
     d="M4.29,47.64h19.3A4.31,4.31,0,0,1,27.88,52V109.1a4.31,4.31,0,0,1-4.29,4.31H4.29A4.31,4.31,0,0,1,0,109.1V52a4.31,4.31,0,0,1,4.29-4.31ZM59,4.77c2.27-11.48,21.07-.91,22.31,17.6A79.82,79.82,0,0,1,79.68,42h26.87c11.17.44,20.92,8.44,14,21.58,1.57,5.72,1.81,12.44-2.45,15.09.53,9-2,14.64-6.65,19.06-.31,4.52-1.27,8.53-3.45,11.62-3.61,5.09-6.54,3.88-12.22,3.88H50.45c-7.19,0-11.11-2-15.81-7.88V54.81C48.16,51.16,55.35,32.66,59,20.51V4.77Z"
     id="path8"
     style="fill-opacity:1;fill:url(#linearGradient1941)"
     inkscape:export-filename="succesfull.png"
     inkscape:export-xdpi="390.67264"
     inkscape:export-ydpi="390.67264" />
</svg>
