<?xml version="1.0" encoding="UTF-8" standalone="no"?>
<svg
   viewBox="0 0 132.004 132"
   version="1.1"
   id="svg28"
   sodipodi:docname="instagram.svg"
   inkscape:version="1.2 (dc2aedaf03, 2022-05-15)"
   xmlns:inkscape="http://www.inkscape.org/namespaces/inkscape"
   xmlns:sodipodi="http://sodipodi.sourceforge.net/DTD/sodipodi-0.dtd"
   xmlns:xlink="http://www.w3.org/1999/xlink"
   xmlns="http://www.w3.org/2000/svg"
   xmlns:svg="http://www.w3.org/2000/svg">
  <sodipodi:namedview
     id="namedview30"
     pagecolor="#ffffff"
     bordercolor="#000000"
     borderopacity="0.25"
     inkscape:showpageshadow="2"
     inkscape:pageopacity="0.0"
     inkscape:pagecheckerboard="0"
     inkscape:deskcolor="#d1d1d1"
     showgrid="false"
     inkscape:zoom="4.3604918"
     inkscape:cx="29.239821"
     inkscape:cy="67.308921"
     inkscape:window-width="1920"
     inkscape:window-height="1001"
     inkscape:window-x="-9"
     inkscape:window-y="-9"
     inkscape:window-maximized="1"
     inkscape:current-layer="svg28" />
  <defs
     id="defs20">
    <linearGradient
       id="b">
      <stop
         offset="0"
         stop-color="#3771c8"
         id="stop2" />
      <stop
         stop-color="#3771c8"
         offset=".128"
         id="stop4" />
      <stop
         offset="1"
         stop-color="#60f"
         stop-opacity="0"
         id="stop6" />
    </linearGradient>
    <linearGradient
       id="a">
      <stop
         offset="0"
         stop-color="#fd5"
         id="stop9" />
      <stop
         offset=".1"
         stop-color="#fd5"
         id="stop11" />
      <stop
         offset=".5"
         stop-color="#ff543e"
         id="stop13" />
      <stop
         offset="1"
         stop-color="#c837ab"
         id="stop15" />
    </linearGradient>
    <radialGradient
       id="c"
       cx="158.429"
       cy="578.088"
       r="65"
       xlink:href="#a"
       gradientUnits="userSpaceOnUse"
       gradientTransform="matrix(0 -1.98198 1.8439 0 -1031.402 454.004)"
       fx="158.429"
       fy="578.088" />
    <radialGradient
       id="d"
       cx="147.694"
       cy="473.455"
       r="65"
       xlink:href="#b"
       gradientUnits="userSpaceOnUse"
       gradientTransform="matrix(.17394 .86872 -3.5818 .71718 1648.348 -458.493)"
       fx="147.694"
       fy="473.455" />
  </defs>
  <path
     id="path24"
     style="fill:#f4f6f4;fill-opacity:1"
     d="M 65.029203 0 C 37.88723 0 29.949155 0.028250128 28.406156 0.15625 C 22.836162 0.61924954 19.371606 1.496955 15.595609 3.3769531 C 12.685612 4.8219517 10.389904 6.4957523 8.1249063 8.84375 C 3.9999104 13.125746 1.5006085 18.394256 0.59560937 24.65625 C 0.15560982 27.696247 0.027859349 28.315766 0.001859375 43.84375 C -0.008140615 49.019745 0.001859375 55.831759 0.001859375 64.96875 C 0.001859375 92.088723 0.03006263 100.0186 0.1600625 101.55859 C 0.61006205 106.97859 1.4616268 110.38914 3.261625 114.11914 C 6.7016216 121.25913 13.271633 126.61914 21.011625 128.61914 C 23.691622 129.30914 26.651082 129.68914 30.451078 129.86914 C 32.061077 129.93914 48.470548 129.98828 64.890531 129.98828 C 81.310515 129.98828 97.730689 129.96867 99.300687 129.88867 C 103.70068 129.68167 106.25694 129.33937 109.08194 128.60938 C 116.87193 126.59938 123.32194 121.31812 126.83194 114.07812 C 128.59694 110.43813 129.49139 106.89871 129.89639 101.76172 C 129.98439 100.64172 130.02139 82.784154 130.02139 64.951172 C 130.02139 47.11519 129.98048 29.291874 129.89248 28.171875 C 129.48248 22.95188 128.58753 19.442418 126.76553 15.732422 C 125.27053 12.695425 123.61108 10.42642 121.20108 8.1074219 C 116.90008 3.999426 111.64095 1.4997022 105.37295 0.59570312 C 102.33596 0.15670356 101.72934 0.026999973 86.189359 0 L 65.029203 0 z M 64.984281 17 L 64.999906 17 C 78.018131 17.000069 79.658411 17.056204 84.775297 17.289062 C 89.885292 17.523062 93.375456 18.332532 96.435453 19.519531 C 99.59545 20.74453 102.26546 22.38469 104.93545 25.054688 C 107.60545 27.722685 109.24452 30.401597 110.47452 33.558594 C 111.65451 36.610591 112.46498 40.097036 112.70498 45.207031 C 112.93498 50.327026 112.99405 51.964013 112.99405 65 C 112.99405 78.035987 112.93498 79.667114 112.70498 84.787109 C 112.46498 89.895104 111.65451 93.384503 110.47452 96.4375 C 109.24452 99.593497 107.60545 102.27146 104.93545 104.93945 C 102.26846 107.60945 99.593403 109.25447 96.437406 110.48047 C 93.383409 111.66747 89.891151 112.47694 84.781156 112.71094 C 79.661161 112.94394 78.031034 113 64.994047 113 C 51.95906 113 50.323026 112.94394 45.203031 112.71094 C 40.094036 112.47694 36.606638 111.66747 33.552641 110.48047 C 30.397644 109.25447 27.719638 107.60945 25.052641 104.93945 C 22.383643 102.27146 20.74253 99.594497 19.515531 96.4375 C 18.329532 93.385503 17.520062 89.897104 17.285062 84.787109 C 17.053063 79.667114 16.996 78.035987 16.996 65 C 16.996 51.964013 17.056063 50.327026 17.285062 45.207031 C 17.515062 40.099036 18.325532 36.609638 19.515531 33.556641 C 20.74553 30.400644 22.384596 27.722685 25.054594 25.054688 C 27.722591 22.38569 30.401503 20.74553 33.5585 19.519531 C 36.610497 18.332532 40.098896 17.523062 45.208891 17.289062 C 50.325776 17.056204 51.970042 17.000069 64.984281 17 z M 60.693266 25.638672 C 51.747275 25.648672 50.031417 25.708203 45.603422 25.908203 C 40.923427 26.123203 38.383311 26.902501 36.691313 27.5625 C 34.451315 28.434499 32.85178 29.474299 31.171781 31.154297 C 29.491783 32.834295 28.44803 34.435783 27.578031 36.675781 C 26.921032 38.36778 26.139687 40.907895 25.925687 45.587891 C 25.695688 50.647886 25.650297 52.158575 25.650297 64.976562 C 25.650297 77.79455 25.695688 79.315005 25.925687 84.375 C 26.138687 89.054995 26.921032 91.595158 27.578031 93.285156 C 28.45003 95.526154 29.491783 97.122736 31.171781 98.802734 C 32.85178 100.48273 34.451315 101.52258 36.691313 102.39258 C 38.384311 103.04958 40.923427 103.83088 45.603422 104.04688 C 50.663417 104.27687 52.182919 104.32617 64.999906 104.32617 C 77.815893 104.32617 79.336396 104.27687 84.396391 104.04688 C 89.076386 103.83288 91.618502 103.05258 93.3085 102.39258 C 95.549498 101.52258 97.144127 100.48273 98.824125 98.802734 C 100.50412 97.123736 101.54592 95.52906 102.41592 93.289062 C 103.07292 91.599064 103.85427 89.058902 104.06827 84.378906 C 104.29827 79.318911 104.34952 77.798268 104.34952 64.988281 C 104.34952 52.178294 104.29827 50.659604 104.06827 45.599609 C 103.85527 40.919614 103.07292 38.379451 102.41592 36.689453 C 101.54392 34.449455 100.50412 32.84992 98.824125 31.169922 C 97.145127 29.489924 95.548498 28.448124 93.3085 27.578125 C 91.616502 26.921126 89.076386 26.139781 84.396391 25.925781 C 79.335396 25.695781 77.815893 25.650391 64.999906 25.650391 C 63.397908 25.650391 61.971264 25.648391 60.693266 25.650391 L 60.693266 25.638672 z M 90.622953 33.617188 C 93.80295 33.617187 96.382719 36.198909 96.382719 39.378906 C 96.382719 42.558903 93.80295 45.138672 90.622953 45.138672 C 87.442956 45.138672 84.861234 42.558903 84.861234 39.378906 C 84.861234 36.197909 87.442956 33.619141 90.622953 33.619141 L 90.622953 33.617188 z M 64.999906 40.349609 C 78.612893 40.349609 89.646391 51.387014 89.646391 65 C 89.646391 78.612986 78.612893 89.644531 64.999906 89.644531 C 51.38692 89.644531 40.349516 78.612986 40.349516 65 C 40.349516 51.387014 51.38692 40.349609 64.999906 40.349609 z M 64.999906 49 C 56.162915 49 48.999906 56.163009 48.999906 65 C 48.999906 73.835991 56.162915 81 64.999906 81 C 73.835897 81 80.999906 73.835991 80.999906 65 C 80.999906 56.163009 73.835897 49 64.999906 49 z "
     transform="translate(1.004 1)"
     inkscape:export-filename="instagram.svg"
     inkscape:export-xdpi="96"
     inkscape:export-ydpi="96" />
</svg>
